# xmcd CD database file
#
# Track frame offsets:
#	150
#	20598
#	36937
#	62372
#	84922
#	114663
#	126349
#	151590
#
# Disc length: 2477 seconds
#
# Revision: 0
# Processed by: cddbd v1.5.2PL0 Copyright (c) Steve Scherf et al.
# Submitted via: CDex 1.74
#
DISCID=5909ab08
DTITLE=Derwent River Star - The Winter Dark
DYEAR=2007
DGENRE=Blues
TTITLE0=Dead roads
TTITLE1=Bottles and boats
TTITLE2=Jettison
TTITLE3=Wanderlust
TTITLE4=Lydia
TTITLE5=Frost
TTITLE6=Dust
TTITLE7=<unnamed>
EXTD=YEAR: 2007
EXTT0=
EXTT1=
EXTT2=
EXTT3=
EXTT4=
EXTT5=
EXTT6=
EXTT7=
PLAYORDER=
